<?xml version="1.0" standalone="no"?>
<!DOCTYPE svg PUBLIC "-//W3C//DTD SVG 20010904//EN"
 "http://www.w3.org/TR/2001/REC-SVG-20010904/DTD/svg10.dtd">
<svg version="1.0" xmlns="http://www.w3.org/2000/svg"
 width="319.000000pt" height="319.000000pt" viewBox="0 0 319.000000 319.000000"
 preserveAspectRatio="xMidYMid meet">
<metadata>
Created by potrace 1.11, written by Peter Selinger 2001-2013
</metadata>
<g transform="translate(0.000000,319.000000) scale(0.100000,-0.100000)"
fill="#000000" stroke="none">
<path d="M145 2888 c-49 -17 -92 -55 -114 -101 -21 -43 -21 -46 -21 -1110 l0
-1067 40 0 40 0 0 -135 c0 -78 4 -135 9 -135 6 0 11 90 13 218 3 207 4 218 26
249 28 40 98 68 147 59 46 -9 102 -59 112 -99 5 -18 7 -127 5 -244 l-3 -212
-107 -4 -107 -3 120 0 120 1 3 158 3 158 142 -3 142 -3 3 -157 c1 -87 7 -158
12 -158 5 0 10 100 12 227 3 254 8 274 78 320 60 41 143 20 187 -46 22 -33 23
-41 23 -267 0 -149 4 -234 10 -234 6 0 10 60 10 160 l0 160 190 0 190 0 0
-161 c0 -104 3 -158 10 -154 6 4 10 93 10 233 0 207 2 230 20 259 40 67 112
88 182 54 78 -38 83 -53 86 -319 2 -135 7 -232 13 -232 5 0 9 68 9 160 l0 160
185 0 185 0 0 -154 c0 -93 4 -157 10 -161 7 -4 10 66 10 202 0 114 5 225 10
245 34 121 169 154 249 63 l31 -36 0 -234 c0 -145 4 -236 10 -240 7 -4 10 50
10 154 l0 161 150 0 150 0 0 -160 c0 -100 4 -160 10 -160 6 0 10 83 10 228 0
263 4 280 81 320 51 27 104 24 151 -9 54 -39 58 -58 58 -294 0 -137 4 -215 10
-215 6 0 10 53 10 140 l0 140 45 0 44 0 4 -77 c1 -43 4 435 5 1062 1 1092 1
1142 -17 1180 -24 53 -55 83 -105 106 -39 18 -96 19 -1466 18 -967 0 -1435 -4
-1455 -11z m1203 -635 l3 -73 -41 0 -40 0 0 76 0 75 38 -3 37 -3 3 -72z m587
2 l0 -70 -37 -3 -38 -3 0 76 0 76 38 -3 37 -3 0 -70z m-880 -280 l0 -70 -40 0
-40 0 -3 49 c-2 27 -1 60 3 73 5 21 11 24 43 21 l37 -3 0 -70z m589 59 c9 -23
7 -107 -3 -122 -5 -8 -22 -12 -42 -10 l-34 3 -3 59 c-2 32 -1 65 2 72 8 20 72
18 80 -2z m584 -61 l3 -73 -41 0 -40 0 0 68 c0 38 3 72 7 76 4 4 21 6 38 4
l30 -3 3 -72z m-880 -5 l-3 -73 -35 0 -35 0 -3 73 -3 72 41 0 41 0 -3 -72z
m570 -5 l3 -73 -41 0 -40 0 0 68 c0 38 3 72 7 76 4 4 21 6 38 4 l30 -3 3 -72z
m-1388 -363 l0 -180 -185 0 -185 0 0 180 0 180 185 0 185 0 0 -180z m2500 0
l0 -180 -180 0 -180 0 0 180 0 180 180 0 180 0 0 -180z m-1982 161 c9 -5 12
-27 10 -72 l-3 -64 -40 0 -40 0 -3 58 c-2 35 2 64 9 73 13 15 47 18 67 5z
m307 -66 l0 -70 -37 -3 -38 -3 0 76 0 76 38 -3 37 -3 0 -70z m873 -2 l3 -73
-41 0 -40 0 0 68 c0 38 3 72 7 76 4 4 21 6 38 4 l30 -3 3 -72z m-590 -10 l3
-73 -41 0 -40 0 0 68 c0 38 3 72 7 76 4 4 21 6 38 4 l30 -3 3 -72z m280 68 c9
-5 12 -27 10 -72 l-3 -64 -40 0 -40 0 -3 64 c-3 67 4 81 43 81 11 0 26 -4 33
-9z m-568 -341 l0 -70 -40 0 -40 0 0 70 0 70 40 0 40 0 0 -70z m590 0 l0 -70
-40 0 -40 0 0 70 0 70 40 0 40 0 0 -70z m-292 -27 l3 -73 -41 0 -40 0 0 68 c0
38 3 72 7 76 4 4 21 6 38 4 l30 -3 3 -72z m-3 -253 l0 -65 -42 -3 -43 -3 0 71
0 71 43 -3 42 -3 0 -65z"/>
<path d="M294 1689 c-25 -13 -54 -60 -54 -89 0 -55 47 -100 105 -100 42 0 75
20 94 57 15 29 14 49 -4 88 -24 49 -88 69 -141 44z"/>
<path d="M2779 1671 c-23 -23 -29 -38 -29 -71 0 -91 106 -135 171 -71 64 65
20 171 -71 171 -33 0 -48 -6 -71 -29z"/>
<path d="M845 836 c-88 -40 -106 -150 -34 -210 24 -20 41 -26 81 -26 44 0 54
4 84 34 32 32 40 56 34 111 -7 70 -99 121 -165 91z"/>
<path d="M1543 836 c-89 -40 -97 -178 -13 -221 66 -34 141 -10 175 55 19 37
19 64 -1 105 -28 60 -101 87 -161 61z"/>
<path d="M2255 836 c-86 -38 -105 -146 -35 -208 24 -23 40 -28 79 -28 143 0
173 188 38 239 -36 14 -45 13 -82 -3z"/>
<path d="M192 820 c-118 -72 -38 -255 98 -225 45 10 90 67 90 116 0 105 -99
163 -188 109z"/>
<path d="M2875 831 c-90 -40 -97 -169 -12 -221 122 -75 250 92 149 193 -32 31
-98 45 -137 28z"/>
</g>
</svg>
