<?xml version="1.0" standalone="no"?>
<!DOCTYPE svg PUBLIC "-//W3C//DTD SVG 20010904//EN"
 "http://www.w3.org/TR/2001/REC-SVG-20010904/DTD/svg10.dtd">
<svg version="1.0" xmlns="http://www.w3.org/2000/svg"
 width="700.000000pt" height="700.000000pt" viewBox="0 0 700.000000 700.000000"
 preserveAspectRatio="xMidYMid meet">
<metadata>
Created by potrace 1.11, written by Peter Selinger 2001-2013
</metadata>
<g transform="translate(0.000000,700.000000) scale(0.100000,-0.100000)"
fill="#000000" stroke="none">
<path d="M1849 5496 c-2 -2 -33 -7 -69 -10 -260 -22 -584 -134 -829 -286 -189
-117 -410 -317 -537 -485 -103 -136 -209 -322 -269 -470 -60 -147 -114 -364
-133 -525 -14 -124 -5 -500 13 -530 1 -3 6 -25 9 -50 9 -65 52 -221 88 -320
103 -282 252 -514 468 -731 300 -301 647 -480 1100 -566 89 -17 197 -18 1780
-18 1495 0 1776 3 1855 20 256 56 373 95 550 182 226 111 360 207 545 393 69
70 139 146 155 171 17 24 38 53 48 64 47 52 154 245 228 410 39 87 98 294 118
410 5 33 13 78 17 100 10 61 12 382 3 450 -4 33 -11 83 -14 110 -18 143 -87
365 -165 530 -42 88 -159 292 -183 317 -7 7 -32 40 -57 73 -58 78 -259 279
-335 335 -33 25 -62 47 -65 50 -6 6 -69 48 -140 92 -179 112 -466 220 -685
257 -33 5 -76 13 -95 18 -36 7 -3393 17 -3401 9z m3336 -810 c206 -40 359
-104 515 -214 113 -80 260 -238 321 -345 71 -123 129 -263 144 -346 3 -19 8
-37 10 -41 10 -17 19 -129 19 -250 0 -323 -117 -603 -349 -836 -187 -188 -423
-306 -685 -343 -37 -6 -745 -10 -1660 -10 -1702 0 -1665 -1 -1840 49 -362 103
-678 410 -798 776 -44 135 -56 215 -56 374 0 329 115 612 344 841 190 190 436
316 674 344 28 3 52 8 54 10 9 8 3265 -1 3307 -9z"/>
<path d="M1888 3886 c-173 -50 -293 -215 -289 -399 1 -64 10 -100 41 -162 149
-306 584 -300 726 9 30 66 44 174 31 236 -30 134 -106 233 -224 292 -53 26
-77 31 -150 34 -54 2 -106 -2 -135 -10z"/>
<path d="M4855 3886 c-185 -53 -305 -231 -289 -426 5 -59 9 -71 43 -142 116
-238 436 -292 634 -108 101 92 147 257 112 395 -32 125 -138 234 -269 278 -57
19 -171 21 -231 3z"/>
</g>
</svg>
