<?xml version="1.0" encoding="UTF-8" standalone="no"?>
<svg
   xmlns:dc="http://purl.org/dc/elements/1.1/"
   xmlns:cc="http://creativecommons.org/ns#"
   xmlns:rdf="http://www.w3.org/1999/02/22-rdf-syntax-ns#"
   xmlns:svg="http://www.w3.org/2000/svg"
   xmlns="http://www.w3.org/2000/svg"
   xmlns:sodipodi="http://sodipodi.sourceforge.net/DTD/sodipodi-0.dtd"
   xmlns:inkscape="http://www.inkscape.org/namespaces/inkscape"
   role="img"
   aria-labelledby="title  desc"
   xml:space="preserve"
   enable-background="new 0 0 280 32.755"
   height="34.210526104448945"
   width="195.47368473887764"
   version="1.1"
   id="svg2"
   inkscape:version="0.91 r13725"
   sodipodi:docname="logo.portrait.black.svg"><sodipodi:namedview
     pagecolor="#ff00ff"
     bordercolor="#666666"
     borderopacity="1"
     objecttolerance="10"
     gridtolerance="10"
     guidetolerance="10"
     inkscape:pageopacity="0"
     inkscape:pageshadow="2"
     inkscape:window-width="1536"
     inkscape:window-height="801"
     id="namedview14"
     showgrid="false"
     inkscape:zoom="3.6367355"
     inkscape:cx="106.22094"
     inkscape:cy="5.7691884"
     inkscape:window-x="-8"
     inkscape:window-y="-8"
     inkscape:window-maximized="1"
     inkscape:current-layer="svg2" /><rect
     id="backgroundrect"
     width="100%"
     height="100%"
     x="0"
     y="0"
     fill="none"
     stroke="none"
     class="" /><title
     id="title"
     lang="en-GB">BBC micro:bit</title><desc
     id="desc"
     lang="en-GB">BBC micro:bit logo</desc><metadata
     id="metadata37"><rdf:rdf><cc:work
         rdf:about=""><dc:format>image/svg+xml</dc:format><dc:type
           rdf:resource="http://purl.org/dc/dcmitype/StillImage" /><dc:title /></cc:work></rdf:rdf><rdf:RDF><cc:Work
         rdf:about=""><dc:format>image/svg+xml</dc:format><dc:type
           rdf:resource="http://purl.org/dc/dcmitype/StillImage" /><dc:title>BBC micro:bit</dc:title></cc:Work></rdf:RDF></metadata><defs
     id="defs35" /><path
     inkscape:connector-curvature="0"
     class=""
     d="m 38.349339,21.473763 c -1.677,0 -3.035,-1.364 -3.035,-3.042 0,-1.678 1.357,-3.038 3.035,-3.038 1.684,0 3.039,1.36 3.039,3.038 0,1.678 -1.355,3.042 -3.039,3.042 m -22.311,-6.077 c -1.677,0 -3.042,1.357 -3.042,3.035 0,1.678 1.363,3.042 3.042,3.042 1.674,0 3.036,-1.364 3.036,-3.042 0,-1.678 -1.363,-3.035 -3.036,-3.035 m -0.003,-5.9900001 22.576,0 c 4.979,0 9.027,4.0470001 9.027,9.0270001 0,4.979 -4.049,9.031 -9.027,9.031 l -22.576,0 c -4.977,0 -9.0299997,-4.053 -9.0299997,-9.031 -0.001,-4.98 4.0529997,-9.0270001 9.0299997,-9.0270001 m 22.576,24.0760001 c 8.299,0 15.047,-6.75 15.047,-15.049 0,-8.299 -6.748,-15.0510001 -15.047,-15.0510001 l -22.576,0 c -8.2989997,0 -15.04899969,6.7520001 -15.04899969,15.0510001 0,8.299 6.74999999,15.049 15.04899969,15.049 l 22.576,0 m 112.098991,-21.953 c 0,-1.453 -1.195,-2.6330001 -2.662,-2.6330001 -1.455,0 -2.639,1.1800001 -2.639,2.6330001 0,1.471 1.184,2.672 2.639,2.672 1.466,0 2.662,-1.202 2.662,-2.672 z m -66.785991,5.445 c 0,-4.764 -2.893,-8.0930001 -7.031,-8.0930001 -2.027,0 -3.814,0.851 -5.223,2.4700001 -1.467,-1.6610001 -3.152,-2.4700001 -5.127,-2.4700001 -4.162,0 -7.066,3.3290001 -7.066,8.0930001 l 0,10.466 3.812,0 0,-10.644 c 0,-2.416 1.336,-4.104 3.254,-4.104 1.617,0 3.25,1.409 3.25,4.104 l 0,10.645 3.848,0 0,-10.645 c 0,-2.416 1.338,-4.104 3.252,-4.104 1.863,0 3.217,1.727 3.217,4.104 l 0,10.645 3.814,0 0,-10.467 z m 6.953,-7.6320001 -3.846,0 0,18.0990001 3.846,0 0,-18.0990001 z m 0.569,-5.128 c 0,-1.377 -1.096,-2.454 -2.492,-2.454 -1.4,0 -2.453,1.054 -2.453,2.454 0,1.398 1.078,2.494 2.453,2.494 1.375,0 2.492,-1.117 2.492,-2.494 z m 18.327991,20.9140001 0.576,-0.521 -2.828,-2.658 -0.488,0.455 c -1.252,1.149 -2.504,1.686 -3.945,1.686 -3.064,0 -5.556991,-2.557 -5.556991,-5.699 0,-3.121 2.491991,-5.66 5.556991,-5.66 1.432,0 2.646,0.521 3.949,1.693 l 0.512,0.46 2.748,-2.802 -0.49,-0.502 c -1.754,-1.7930001 -4.016,-2.6960001 -6.719,-2.6960001 -2.459,0 -4.868991,1.022 -6.604991,2.7980001 -1.738,1.734 -2.691,4.119 -2.691,6.709 0,2.596 0.953,4.979 2.684,6.705 1.771,1.811 4.116991,2.811 6.614991,2.811 2.401,-0.003 4.647,-0.937 6.682,-2.779 z m 7.25,-6.947 c 0,-3.322 1.145,-4.686 4.217,-5.029 l 0.641,-0.07 0,-3.7970001 -0.777,0.058 c -5.629,0.458 -8.143,3.2470001 -8.143,9.0480001 l 0,9.051 4.062,0 0,-9.261 0,0 z m 21.998,6.923 c 1.762,-1.756 2.729,-4.146 2.729,-6.715 0,-2.565 -0.967,-4.951 -2.723,-6.702 -1.77,-1.8090001 -4.105,-2.8060001 -6.576,-2.8060001 -2.492,0 -4.84,0.997 -6.613,2.8060001 -1.752,1.792 -2.721,4.174 -2.721,6.702 0,2.53 0.969,4.916 2.721,6.707 1.771,1.81 4.121,2.808 6.613,2.808 2.472,0 4.808,-0.998 6.57,-2.8 z m -1.229,-6.714 c 0,3.18 -2.361,5.665 -5.377,5.665 -2.945,0 -5.346,-2.541 -5.346,-5.665 0,-3.137 2.398,-5.695 5.346,-5.695 2.963,-0.002 5.377,2.558 5.377,5.695 z m 12.917,6.418 c 0,-1.468 -1.195,-2.667 -2.662,-2.667 -1.455,0 -2.639,1.199 -2.639,2.667 0,1.453 1.184,2.632 2.639,2.632 1.466,0 2.662,-1.179 2.662,-2.632 z m 19.507,0.296 c 1.76,-1.756 2.73,-4.146 2.73,-6.715 0,-2.528 -0.973,-4.911 -2.729,-6.702 -1.746,-1.7870001 -4.08,-2.7700001 -6.574,-2.7700001 -2.035,0 -3.84,0.572 -5.484,1.7440001 l 0,-9.93400015 -3.816,0 0.008,15.58200015 c -0.037,0.411 -0.037,0.821 -0.037,1.198 0,6.119 3.836,10.396 9.33,10.396 2.475,10e-4 4.807,-0.997 6.572,-2.799 z m -1.013,-6.677 c 0,3.123 -2.494,5.66 -5.559,5.66 -3.115,0 -5.557,-2.484 -5.557,-5.66 0,-3.143 2.494,-5.698 5.557,-5.698 3.065,0 5.559,2.556 5.559,5.698 z m 10.881,-9.0850001 -3.846,0 0,18.0990001 3.846,0 0,-18.0990001 z m 0.572,-5.128 c 0,-1.377 -1.098,-2.454 -2.492,-2.454 -1.4,0 -2.457,1.054 -2.457,2.454 0,1.398 1.076,2.494 2.457,2.494 1.373,0 2.492,-1.117 2.492,-2.494 z m 13.83,19.7590001 -0.619,-0.089 c -2.855,-0.409 -4.133,-2.104 -4.133,-5.495 l 0,-5.126 4.752,0 0,-3.6740001 -4.752,0 0,-4.006 -3.887,0 0,4.006 -1.662,0 0,3.6740001 1.662,0 0,4.525 c 0,6.215 2.113,8.932 7.783,10.029 l 0.855,0.164 0,-4.008 10e-4,0 z"
     id="path21"
     style="fill:#000000" /></svg>