<svg xmlns="http://www.w3.org/2000/svg" version="1" viewBox="0 0 498 406" width="498" height="406" class="sim" id="svg2"><style id="style4">svg.sim{margin-bottom:1em}svg.sim.grayscale{-moz-filter:grayscale(1);-webkit-filter:grayscale(1);filter:grayscale(1)}.sim-button{pointer-events:none}.sim-button-outer:hover{stroke:gray;stroke-width:3px}.sim-pin:hover{stroke:#d4af37;stroke-width:2px}.sim-pin-touch.touched:hover{stroke:#ff8c00}.sim-led-back:hover,.sim-led:hover{stroke:#a0a0a0;stroke-width:3px}.sim-led:hover{stroke:#ff7f7f}.sim-systemled{fill:#333;stroke:#555;stroke-width:1px}.sim-light-level-button{stroke:#fff;stroke-width:3px}.sim-antenna{stroke:#555;stroke-width:2px}.sim-text,.sim-text-pin{font-family:&quot;Lucida Console&quot;,Monaco,monospace;font-size:25px;fill:#fff;pointer-events:none}.sim-text-pin{font-size:20px}.sim-thermometer{stroke:#aaa;stroke-width:3px}.sim-flash{animation-name:sim-flash-animation;animation-duration:.1s}@keyframes sim-flash-animation{0%{fill:#ff0}to{fill:default}}.sim-flash-stroke{animation-name:sim-flash-stroke-animation;animation-duration:.4s;animation-timing-function:ease-in}@keyframes sim-flash-stroke-animation{0%{stroke:#ff0}to{stroke:default}}</style><defs id="defs6"><filter id="filterglow" x="-5%" y="-5%"><feGaussianBlur stdDeviation="5" result="glow" id="feGaussianBlur9"/><feMerge id="feMerge11"><feMergeNode in="glow" id="feMergeNode13"/><feMergeNode in="glow" id="feMergeNode15"/><feMergeNode in="glow" id="feMergeNode17"/></feMerge></filter><linearGradient id="gradient-pin-0" x1="0%" x2="0%" y1="0%" y2="100%"><stop offset="0%" stop-color="#D4AF37" id="stop20"/><stop offset="100%" stop-color="#D4AF37" id="stop22"/><stop offset="100%" stop-color="#F50" id="stop24"/><stop offset="100%" stop-color="#F50" id="stop26"/></linearGradient><linearGradient id="gradient-pin-1" x1="0%" x2="0%" y1="0%" y2="100%"><stop offset="0%" stop-color="#D4AF37" id="stop29"/><stop offset="100%" stop-color="#D4AF37" id="stop31"/><stop offset="100%" stop-color="#F50" id="stop33"/><stop offset="100%" stop-color="#F50" id="stop35"/></linearGradient><linearGradient id="gradient-pin-2" x1="0%" x2="0%" y1="0%" y2="100%"><stop offset="0%" stop-color="#D4AF37" id="stop38"/><stop offset="100%" stop-color="#D4AF37" id="stop40"/><stop offset="100%" stop-color="#F50" id="stop42"/><stop offset="100%" stop-color="#F50" id="stop44"/></linearGradient><linearGradient id="gradient-pin-3" x1="0%" x2="0%" y1="0%" y2="100%"><stop offset="0%" stop-color="#D4AF37" id="stop47"/><stop offset="100%" stop-color="#D4AF37" id="stop49"/><stop offset="100%" stop-color="#F50" id="stop51"/><stop offset="100%" stop-color="#F50" id="stop53"/></linearGradient><linearGradient id="gradient-pin-4" x1="149.146" x2="149.146" y1="159.521" y2="181.882" gradientTransform="matrix(2.03847 0 0 2.23607 -237.329 0)" gradientUnits="userSpaceOnUse"><stop offset="0%" stop-color="#D4AF37" id="stop56"/><stop offset="100%" stop-color="#D4AF37" id="stop58"/><stop offset="100%" stop-color="#F50" id="stop60"/><stop offset="100%" stop-color="#F50" id="stop62"/></linearGradient><linearGradient id="gradient-pin-5" x1="0%" x2="0%" y1="0%" y2="100%"><stop offset="0%" stop-color="#D4AF37" id="stop65"/><stop offset="100%" stop-color="#D4AF37" id="stop67"/><stop offset="100%" stop-color="#F50" id="stop69"/><stop offset="100%" stop-color="#F50" id="stop71"/></linearGradient><linearGradient id="gradient-pin-6" x1="0%" x2="0%" y1="0%" y2="100%"><stop offset="0%" stop-color="#D4AF37" id="stop74"/><stop offset="100%" stop-color="#D4AF37" id="stop76"/><stop offset="100%" stop-color="#F50" id="stop78"/><stop offset="100%" stop-color="#F50" id="stop80"/></linearGradient><linearGradient id="gradient-pin-7" x1="0%" x2="0%" y1="0%" y2="100%"><stop offset="0%" stop-color="#D4AF37" id="stop83"/><stop offset="100%" stop-color="#D4AF37" id="stop85"/><stop offset="100%" stop-color="#F50" id="stop87"/><stop offset="100%" stop-color="#F50" id="stop89"/></linearGradient><linearGradient id="gradient-pin-8" x1="367.386" x2="367.386" y1="159.521" y2="181.882" gradientTransform="matrix(2.65049 0 0 2.23607 -809.453 0)" gradientUnits="userSpaceOnUse"><stop offset="0%" stop-color="#D4AF37" id="stop92"/><stop offset="100%" stop-color="#D4AF37" id="stop94"/><stop offset="100%" stop-color="#F50" id="stop96"/><stop offset="100%" stop-color="#F50" id="stop98"/></linearGradient><linearGradient id="gradient-pin-9" x1="0%" x2="0%" y1="0%" y2="100%"><stop offset="0%" stop-color="#D4AF37" id="stop101"/><stop offset="100%" stop-color="#D4AF37" id="stop103"/><stop offset="100%" stop-color="#F50" id="stop105"/><stop offset="100%" stop-color="#F50" id="stop107"/></linearGradient><linearGradient id="gradient-pin-10" x1="0%" x2="0%" y1="0%" y2="100%"><stop offset="0%" stop-color="#D4AF37" id="stop110"/><stop offset="100%" stop-color="#D4AF37" id="stop112"/><stop offset="100%" stop-color="#F50" id="stop114"/><stop offset="100%" stop-color="#F50" id="stop116"/></linearGradient><linearGradient id="gradient-pin-11" x1="0%" x2="0%" y1="0%" y2="100%"><stop offset="0%" stop-color="#D4AF37" id="stop119"/><stop offset="100%" stop-color="#D4AF37" id="stop121"/><stop offset="100%" stop-color="#F50" id="stop123"/><stop offset="100%" stop-color="#F50" id="stop125"/></linearGradient><linearGradient id="gradient-pin-12" x1="0%" x2="0%" y1="0%" y2="100%"><stop offset="0%" stop-color="#D4AF37" id="stop128"/><stop offset="100%" stop-color="#D4AF37" id="stop130"/><stop offset="100%" stop-color="#F50" id="stop132"/><stop offset="100%" stop-color="#F50" id="stop134"/></linearGradient><linearGradient id="gradient-pin-13" x1="615.366" x2="615.366" y1="159.521" y2="181.882" gradientTransform="matrix(2.63689 0 0 2.23607 -1347.452 0)" gradientUnits="userSpaceOnUse"><stop offset="0%" stop-color="#D4AF37" id="stop137"/><stop offset="100%" stop-color="#D4AF37" id="stop139"/><stop offset="100%" stop-color="#F50" id="stop141"/><stop offset="100%" stop-color="#F50" id="stop143"/></linearGradient><linearGradient id="gradient-pin-14" x1="0%" x2="0%" y1="0%" y2="100%"><stop offset="0%" stop-color="#D4AF37" id="stop146"/><stop offset="100%" stop-color="#D4AF37" id="stop148"/><stop offset="100%" stop-color="#F50" id="stop150"/><stop offset="100%" stop-color="#F50" id="stop152"/></linearGradient><linearGradient id="gradient-pin-15" x1="0%" x2="0%" y1="0%" y2="100%"><stop offset="0%" stop-color="#D4AF37" id="stop155"/><stop offset="100%" stop-color="#D4AF37" id="stop157"/><stop offset="100%" stop-color="#F50" id="stop159"/><stop offset="100%" stop-color="#F50" id="stop161"/></linearGradient><linearGradient id="gradient-pin-16" x1="0%" x2="0%" y1="0%" y2="100%"><stop offset="0%" stop-color="#D4AF37" id="stop164"/><stop offset="100%" stop-color="#D4AF37" id="stop166"/><stop offset="100%" stop-color="#F50" id="stop168"/><stop offset="100%" stop-color="#F50" id="stop170"/></linearGradient><linearGradient id="gradient-pin-17" x1="0%" x2="0%" y1="0%" y2="100%"><stop offset="0%" stop-color="#D4AF37" id="stop173"/><stop offset="100%" stop-color="#D4AF37" id="stop175"/><stop offset="100%" stop-color="#F50" id="stop177"/><stop offset="100%" stop-color="#F50" id="stop179"/></linearGradient><linearGradient id="gradient-pin-18" x1="861.11" x2="861.11" y1="159.521" y2="181.882" gradientTransform="matrix(2.09287 0 0 2.23607 -1417.092 0)" gradientUnits="userSpaceOnUse"><stop offset="0%" stop-color="#D4AF37" id="stop182"/><stop offset="100%" stop-color="#D4AF37" id="stop184"/><stop offset="100%" stop-color="#F50" id="stop186"/><stop offset="100%" stop-color="#F50" id="stop188"/></linearGradient><linearGradient id="gradient-pin-19" x1="0%" x2="0%" y1="0%" y2="100%"><stop offset="0%" stop-color="#D4AF37" id="stop191"/><stop offset="100%" stop-color="#D4AF37" id="stop193"/><stop offset="100%" stop-color="#F50" id="stop195"/><stop offset="100%" stop-color="#F50" id="stop197"/></linearGradient><linearGradient id="gradient-pin-20" x1="0%" x2="0%" y1="0%" y2="100%"><stop offset="0%" stop-color="#D4AF37" id="stop200"/><stop offset="100%" stop-color="#D4AF37" id="stop202"/><stop offset="100%" stop-color="#F50" id="stop204"/><stop offset="100%" stop-color="#F50" id="stop206"/></linearGradient><linearGradient id="gradient-pin-21" x1="0%" x2="0%" y1="0%" y2="100%"><stop offset="0%" stop-color="#D4AF37" id="stop209"/><stop offset="100%" stop-color="#D4AF37" id="stop211"/><stop offset="100%" stop-color="#F50" id="stop213"/><stop offset="100%" stop-color="#F50" id="stop215"/></linearGradient><linearGradient id="gradient-pin-22" x1="0%" x2="0%" y1="0%" y2="100%"><stop offset="0%" stop-color="#D4AF37" id="stop218"/><stop offset="100%" stop-color="#D4AF37" id="stop220"/><stop offset="100%" stop-color="#F50" id="stop222"/><stop offset="100%" stop-color="#F50" id="stop224"/></linearGradient><linearGradient id="gradient-pin-23" x1="0%" x2="0%" y1="0%" y2="100%"><stop offset="0%" stop-color="#D4AF37" id="stop227"/><stop offset="100%" stop-color="#D4AF37" id="stop229"/><stop offset="100%" stop-color="#F50" id="stop231"/><stop offset="100%" stop-color="#F50" id="stop233"/></linearGradient><linearGradient id="gradient-pin-24" x1="0%" x2="0%" y1="0%" y2="100%"><stop offset="0%" stop-color="#D4AF37" id="stop236"/><stop offset="100%" stop-color="#D4AF37" id="stop238"/><stop offset="100%" stop-color="#F50" id="stop240"/><stop offset="100%" stop-color="#F50" id="stop242"/></linearGradient></defs><path d="M499.282 31.993c0-17.6-14.3-31.9-31.9-31.9h-434.2c-17.6 0-31.9 14.3-31.9 31.9v342.2c0 17.6 14.3 31.9 31.9 31.9h434.2c17.6 0 31.9-14.3 31.9-31.9v-342.2z" id="path3860"/><path d="M15.582 206.793c-2.7 0-4.8-2.2-4.8-4.8 0-2.7 2.2-4.8 4.8-4.8 2.7 0 4.8 2.2 4.8 4.8.1 2.7-2.1 4.8-4.8 4.8z" id="path3858"/><path d="M487.482 206.793c-2.7 0-4.8-2.2-4.8-4.8 0-2.72.2-4.8 4.8-4.8 2.7 0 4.8 2.2 4.8 4.8 0 2.7-2.2 4.8-4.8 4.8z" id="path244"/><path fill="#FF3A54" d="M115 56.7L173.1 0H115m-.8 0H25.9C12.1 2.1 0 13.3 0 27.7v83.9L114.2 0z" class="sim-theme" id="path248"/><rect width="10" height="20" x="200" y="91" class="sim-led-back" rx="2" ry="2" id="rect254" fill="#202020"/><rect width="14" height="24" x="198" y="89" class="sim-led" rx="3" ry="3" id="rect256" fill="#ff7f7f"><title id="title258">(1,0)</title></rect><rect width="10" height="20" x="292" y="91" class="sim-led-back" rx="2" ry="2" id="rect262" fill="#202020"/><rect width="14" height="24" x="290" y="89" class="sim-led" rx="3" ry="3" id="rect264" fill="#ff7f7f"><title id="title266">(3,0)</title></rect><rect width="10" height="20" x="154" y="135" class="sim-led-back" rx="2" ry="2" id="rect270" fill="#202020"/><rect width="14" height="24" x="152" y="133" class="sim-led" rx="3" ry="3" id="rect272" fill="#ff7f7f"><title id="title274">(0,1)</title></rect><rect width="10" height="20" x="200" y="135" class="sim-led-back" rx="2" ry="2" id="rect276" fill="#202020"/><rect width="10" height="20" x="246" y="135" class="sim-led-back" rx="2" ry="2" id="rect278" fill="#202020"/><rect width="14" height="24" x="244" y="133" class="sim-led" rx="3" ry="3" id="rect280" fill="#ff7f7f"><title id="title282">(2,1)</title></rect><rect width="10" height="20" x="338" y="135" class="sim-led-back" rx="2" ry="2" id="rect286" fill="#202020"/><rect width="14" height="24" x="336" y="133" class="sim-led" rx="3" ry="3" id="rect288" fill="#ff7f7f"><title id="title290">(4,1)</title></rect><rect width="10" height="20" x="154" y="179" class="sim-led-back" rx="2" ry="2" id="rect292" fill="#202020"/><rect width="14" height="24" x="152" y="177" class="sim-led" rx="3" ry="3" id="rect294" fill="#ff7f7f"><title id="title296">(0,2)</title></rect><rect width="10" height="20" x="200" y="179" class="sim-led-back" rx="2" ry="2" id="rect298" fill="#202020"/><rect width="10" height="20" x="246" y="179" class="sim-led-back" rx="2" ry="2" id="rect300" fill="#202020"/><rect width="10" height="20" x="292" y="179" class="sim-led-back" rx="2" ry="2" id="rect302" fill="#202020"/><rect width="10" height="20" x="338" y="179" class="sim-led-back" rx="2" ry="2" id="rect304" fill="#202020"/><rect width="14" height="24" x="336" y="177" class="sim-led" rx="3" ry="3" id="rect306" fill="#ff7f7f"><title id="title308">(4,2)</title></rect><rect width="10" height="20" x="200" y="223" class="sim-led-back" rx="2" ry="2" id="rect312" fill="#202020"/><rect width="14" height="24" x="198" y="221" class="sim-led" rx="3" ry="3" id="rect314" fill="#ff7f7f"><title id="title316">(1,3)</title></rect><rect width="10" height="20" x="292" y="223" class="sim-led-back" rx="2" ry="2" id="rect320" fill="#202020"/><rect width="14" height="24" x="290" y="221" class="sim-led" rx="3" ry="3" id="rect322" fill="#ff7f7f"><title id="title324">(3,3)</title></rect><rect width="10" height="20" x="246" y="267" class="sim-led-back" rx="2" ry="2" id="rect332" fill="#202020"/><rect width="14" height="24" x="244" y="265" class="sim-led" rx="3" ry="3" id="rect334" fill="#ff7f7f"><title id="title336">(2,4)</title></rect><path fill="url(#gradient-pin-0)" d="M16.5 341.2c0 .4-.1.9-.1 1.3v60.7c4.1 1.7 8.6 2.7 12.9 2.7h34.4v-64.7h.3v-.1c0-13-10.6-23.6-23.7-23.6-13.1.1-23.8 10.6-23.8 23.7zm4.7.4c0-10.7 8.7-19.3 19.3-19.3 10.7 0 19.3 8.7 19.3 19.3 0 10.7-8.6 19.3-19.3 19.3-10.6 0-19.3-8.7-19.3-19.3z" class="sim-pin sim-pin-touch" id="path348"><title id="title350">P0, ANALOG IN</title></path><path d="M139.1 317.3c-12.8 0-22.1 10.3-23.1 23.1V406h46.2v-65.6c0-12.7-10.3-23.1-23.1-23.1zm.2 42.8c-10.7 0-19.3-8.6-19.3-19.3 0-10.7 8.6-19.3 19.3-19.3 10.7 0 19.3 8.7 19.3 19.3 0 10.7-8.6 19.3-19.3 19.3z" class="sim-pin sim-pin-touch" id="path352" fill="url(#gradient-pin-1)"><title id="title354">P1, ANALOG IN</title></path><path fill="url(#gradient-pin-2)" d="M249 317.3c-12.8 0-22.1 10.3-23.1 23.1V406h46.2v-65.6c0-12.7-10.3-23.1-23.1-23.1zm.4 42.8c-10.7 0-19.3-8.6-19.3-19.3 0-10.7 8.6-19.3 19.3-19.3 10.7 0 19.3 8.7 19.3 19.3 0 10.7-8.6 19.3-19.3 19.3z" class="sim-pin sim-pin-touch" id="path356"><title id="title358">P2, ANALOG IN</title></path><path fill="url(#gradient-pin-3)" d="M0 357.7v19.2c0 10.8 6.2 20.2 14.4 25.2v-44.4H0z" class="sim-pin" id="path360"><title id="title362">P3, ANALOG IN, LED Col 1</title></path><path d="M66.7 356.7h45.582v50H66.7z" class="sim-pin" id="path364" fill="url(#gradient-pin-4)"><title id="title366">P4, ANALOG IN, LED Col 2</title></path><path d="M164.3 356.7h59.267v50H164.3z" class="sim-pin" id="path380" fill="url(#gradient-pin-8)"><title id="title382">P8</title></path><path d="M275.2 356.7h58.963v50H275.2z" class="sim-pin" id="path400" fill="url(#gradient-pin-13)"><title id="title402">P13, SPI - SCK</title></path><path d="M385.1 356.7h46.798v50H385.1z" class="sim-pin" id="path420" fill="url(#gradient-pin-18)"><title id="title422">P18, +3v3</title></path><path fill="url(#gradient-pin-22)" d="M483.6 402c8.2-5 14.4-14.4 14.4-25.1v-19.2h-14.4V402z" class="sim-pin" id="path436"><title id="title438">GND</title></path><path d="M359.9 317.3c-12.8 0-22.1 10.3-23.1 23.1V406H383v-65.6c0-12.7-10.3-23.1-23.1-23.1zm.1 42.8c-10.7 0-19.3-8.6-19.3-19.3 0-10.7 8.6-19.3 19.3-19.3 10.7 0 19.3 8.7 19.3 19.3 0 10.7-8.6 19.3-19.3 19.3z" class="sim-pin" id="path440" fill="url(#gradient-pin-23)"><title id="title442">+3v3</title></path><path fill="url(#gradient-pin-24)" d="M458 317.6c-13 0-23.6 10.6-23.6 23.6V406H469c4.3 0 8.4-1 12.6-2.7v-62c0-13.2-10.6-23.7-23.6-23.7zm-.2 43.3c-10.7 0-19.3-8.6-19.3-19.3 0-10.7 8.6-19.3 19.3-19.3 10.7 0 19.3 8.7 19.3 19.3 0 10.6-8.7 19.3-19.3 19.3z" class="sim-pin" id="path444"><title id="title446">GND</title></path><path fill="#979797" d="M82.1 232.6H25.9c-.5 0-1-.4-1-1v-56.2c0-.5.4-1 1-1h56.2c.5 0 1 .4 1 1v56.2c-.1.6-.5 1-1 1" class="sim-button-outer" id="path448"><title id="title450">A</title></path><path d="M69.7 203.5c0 8.7-7 15.7-15.7 15.7s-15.7-7-15.7-15.7 7-15.7 15.7-15.7 15.7 7.1 15.7 15.7" class="sim-button" id="path452"/><path fill="#979797" d="M474.3 232.6h-56.2c-.5 0-1-.4-1-1v-56.2c0-.5.4-1 1-1h56.2c.5 0 1 .4 1 1v56.2c0 .6-.5 1-1 1" class="sim-button-outer" id="path454"><title id="title456">B</title></path><path d="M461.9 203.5c0 8.7-7 15.7-15.7 15.7s-15.7-7-15.7-15.7 7-15.7 15.7-15.7 15.7 7.1 15.7 15.7" class="sim-button" id="path458"/><rect width="14" height="24" x="197.974" y="134.181" class="sim-led" rx="3" ry="3" id="rect256-6" fill="#ff7f7f"><title id="title258-3">(1,0)</title></rect><rect width="14" height="24" x="199.191" y="176.758" class="sim-led" rx="3" ry="3" id="rect256-67" fill="#ff7f7f"><title id="title258-7">(1,0)</title></rect><rect width="14" height="24" x="243.591" y="178.582" class="sim-led" rx="3" ry="3" id="rect256-4" fill="#ff7f7f"><title id="title258-34">(1,0)</title></rect><rect width="14" height="24" x="244.808" y="225.416" class="sim-led" rx="3" ry="3" id="rect256-2" fill="#ff7f7f"><title id="title258-2">(1,0)</title></rect><rect width="14" height="24" x="287.992" y="178.582" class="sim-led" rx="3" ry="3" id="rect256-7" fill="#ff7f7f"><title id="title258-26">(1,0)</title></rect><rect width="14" height="24" x="287.384" y="134.79" class="sim-led" rx="3" ry="3" id="rect256-43" fill="#ff7f7f"><title id="title258-8">(1,0)</title></rect></svg>