<?xml version="1.0" encoding="utf-8"?>
<svg viewBox="0 0 1000 762" xmlns="http://www.w3.org/2000/svg">
  <defs>
    <pattern id="pattern-1" x="0" y="0" width="20" height="20" patternUnits="userSpaceOnUse" viewBox="0 0 100 100">
      <path d="M 0 0 L 50 0 L 50 100 L 0 100 Z" style="fill: black;"/>
    </pattern>
  </defs>
  <path d="M 35.991 584.105 L 34.935 502.071 L 13.194 501.812 C 10.347 491.977 2.323 491.459 2.323 491.459 L 2.323 401.648 C 13.193 401.39 12.677 389.743 12.677 389.743 L 31.053 389.743 L 30.535 276.897 L 10.605 276.638 C 9.57 267.579 2.582 266.803 2.582 266.803 L 2.323 175.18 C 10.346 173.109 10.088 164.309 10.088 164.309 L 30.004 164.836 L 28.286 17.052 C 28.286 17.052 27.984 3.546 40.07 3.236 C 52.156 2.926 940.008 1.377 940.008 1.377 L 961.701 22.759 L 962.011 185.455 L 997.649 222.022 L 999.818 688.106 L 965.109 722.814 L 964.8 747.296 C 964.8 747.296 965.419 756.903 955.813 758.142 C 946.207 759.381 49.987 760.002 49.987 760.002 C 49.987 760.002 41 759.692 38.831 751.015 L 38.211 715.687 L 13.639 715.75 L 12.145 584.429 L 35.991 584.105 Z" style="stroke: rgb(0, 0, 0); fill: rgb(255, 255, 255); stroke-width: 5; stroke-linejoin: round; fill-rule: nonzero; fill-opacity: 1;"/>
</svg>