<?xml version="1.0" encoding="UTF-8" standalone="no"?>
<svg
   xmlns:dc="http://purl.org/dc/elements/1.1/"
   xmlns:cc="http://creativecommons.org/ns#"
   xmlns:rdf="http://www.w3.org/1999/02/22-rdf-syntax-ns#"
   xmlns:svg="http://www.w3.org/2000/svg"
   xmlns="http://www.w3.org/2000/svg"
   xmlns:sodipodi="http://sodipodi.sourceforge.net/DTD/sodipodi-0.dtd"
   xmlns:inkscape="http://www.inkscape.org/namespaces/inkscape"
   width="52.672001"
   height="52.672001"
   viewBox="0 0 52.672003 52.672"
   id="svg2"
   version="1.1"
   inkscape:version="0.91 r13725"
   sodipodi:docname="squarelogo.svg">
  <metadata
     id="metadata14">
    <rdf:RDF>
      <cc:Work
         rdf:about="">
        <dc:format>image/svg+xml</dc:format>
        <dc:type
           rdf:resource="http://purl.org/dc/dcmitype/StillImage" />
        <dc:title></dc:title>
      </cc:Work>
    </rdf:RDF>
  </metadata>
  <defs
     id="defs12" />
  <sodipodi:namedview
     pagecolor="#ffffff"
     bordercolor="#666666"
     borderopacity="1"
     objecttolerance="10"
     gridtolerance="10"
     guidetolerance="10"
     inkscape:pageopacity="0"
     inkscape:pageshadow="2"
     inkscape:window-width="640"
     inkscape:window-height="480"
     id="namedview10"
     showgrid="false"
     inkscape:zoom="6.0373632"
     inkscape:cx="26.336"
     inkscape:cy="21.675409"
     inkscape:window-x="0"
     inkscape:window-y="0"
     inkscape:window-maximized="0"
     inkscape:current-layer="svg2" />
  <g
     transform="translate(-1.355,9.2400005)"
     id="g4">
    <title
       id="title6">micro:bit logo</title>
    <path
       d="m 38.718,20.113 c -1.677,0 -3.035,-1.364 -3.035,-3.042 0,-1.677 1.357,-3.037 3.035,-3.037 1.684,0 3.04,1.36 3.04,3.038 0,1.68 -1.356,3.043 -3.04,3.043 m -22.31,-6.077 c -1.678,0 -3.043,1.357 -3.043,3.035 0,1.68 1.363,3.043 3.042,3.043 1.674,0 3.036,-1.364 3.036,-3.042 0,-1.677 -1.363,-3.034 -3.036,-3.034 m -0.003,-5.99 22.576,0 c 4.98,0 9.027,4.047 9.027,9.027 0,4.98 -4.05,9.03 -9.027,9.03 l -22.576,0 c -4.977,0 -9.03,-4.052 -9.03,-9.03 0,-4.98 4.053,-9.027 9.03,-9.027 M 38.98,32.122 c 8.3,0 15.047,-6.75 15.047,-15.05 0,-8.298 -6.748,-15.05 -15.047,-15.05 l -22.576,0 c -8.3,0 -15.05,6.752 -15.05,15.05 0,8.3 6.75,15.05 15.05,15.05 l 22.576,0"
       id="path8"
       inkscape:connector-curvature="0" />
  </g>
</svg>
